<svg width="800" height="200" viewBox="0 0 800 200" fill="none" xmlns="http://www.w3.org/2000/svg">
  <path d="M39.168 147V44.2H103.248C116.288 44.2 127.168 46.52 135.888 51.16C144.608 55.8 151.168 62.36 155.568 70.84C159.968 79.32 162.168 89.24 162.168 100.6C162.168 111.96 159.968 121.88 155.568 130.36C151.168 138.84 144.608 145.4 135.888 150.04C127.168 154.68 116.288 157 103.248 157H39.168V147ZM100.848 147C112.208 147 121.648 144.92 129.168 140.76C136.688 136.6 142.328 130.84 146.088 123.48C149.848 116.12 151.728 108.92 151.728 100.6C151.728 92.28 149.848 84.84 146.088 78.28C142.328 71.72 136.688 66.6 129.168 62.92C121.648 59.24 112.208 57.4 100.848 57.4H49.608V147H100.848Z" fill="#1E293B"/>
  <path d="M187.385 147V44.2H197.825V147H187.385Z" fill="#1E293B"/>
  <path d="M233.603 147V44.2H244.043V135.8H316.563V147H233.603Z" fill="#1E293B"/>
  <path d="M339.139 147V44.2H349.579V147H339.139Z" fill="#1E293B"/>
  <path d="M385.357 147V44.2H395.797V147H385.357Z" fill="#1E293B"/>
  <path d="M431.574 147V44.2H442.014V135.8H514.534V147H431.574Z" fill="#1E293B"/>
  <path d="M650 100C650 127.614 627.614 150 600 150C572.386 150 550 127.614 550 100C550 72.3858 572.386 50 600 50C627.614 50 650 72.3858 650 100Z" stroke="#4F46E5" stroke-width="20"/>
  <circle cx="600" cy="70" r="8" fill="#4F46E5"/>
  <circle cx="600" cy="100" r="8" fill="#4F46E5"/>
  <path d="M700.504 147V44.2H710.944V147H700.504Z" fill="#4F46E5"/>
  <path d="M746.722 147V44.2H757.162V135.8H790.002V147H746.722Z" fill="#4F46E5"/>
  <path d="M804.939 147V44.2H815.379V147H804.939Z" fill="#4F46E5"/>
</svg> 